<svg width="1183" height="1165" viewBox="0 0 1183 1165" fill="none" xmlns="http://www.w3.org/2000/svg">
<g opacity="0.4">
<path d="M610.687 673C661.432 662.62 694.023 613.694 683.482 563.723C672.941 513.751 623.258 481.657 572.513 492.038C521.768 502.418 489.177 551.344 499.718 601.315C510.26 651.287 559.942 683.381 610.687 673Z" stroke="url(#paint0_linear_229_65)" stroke-miterlimit="10"/>
<path d="M519.027 691.468C580.111 730.927 662.112 714.152 702.182 654C742.253 593.848 725.218 513.096 664.135 473.637C603.052 434.177 521.05 450.952 480.98 511.104C440.91 571.257 457.944 652.008 519.027 691.468Z" stroke="url(#paint1_linear_229_65)" stroke-miterlimit="10"/>
<path d="M628.511 757.494C726.642 737.419 789.668 642.807 769.283 546.171C748.898 449.535 652.821 387.47 554.69 407.545C456.558 427.619 393.532 522.231 413.918 618.867C434.303 715.503 530.38 777.568 628.511 757.494Z" stroke="url(#paint2_linear_229_65)" stroke-miterlimit="10"/>
<path d="M638.104 802.968C761.739 777.677 841.144 658.475 815.461 536.725C789.778 414.974 668.732 336.778 545.097 362.07C421.462 387.362 342.056 506.563 367.739 628.314C393.422 750.065 514.469 828.26 638.104 802.968Z" stroke="url(#paint3_linear_229_65)" stroke-miterlimit="10"/>
<path d="M427.364 829.071C565.619 918.383 751.22 880.415 841.915 744.267C932.609 608.119 894.054 425.347 755.798 336.034C617.543 246.722 431.942 284.69 341.248 420.838C250.553 556.986 289.108 739.758 427.364 829.071Z" stroke="url(#paint4_linear_229_65)" stroke-miterlimit="10"/>
<path d="M369.183 916.41C556.421 1037.37 807.779 985.946 930.607 801.561C1053.43 617.177 1001.22 369.649 813.98 248.694C626.741 127.739 375.383 179.159 252.556 363.543C129.729 547.928 181.944 795.455 369.183 916.41Z" stroke="url(#paint5_linear_229_65)" stroke-miterlimit="10"/>
<path d="M321.062 988.647C548.813 1135.77 854.558 1073.23 1003.96 848.948C1153.37 624.668 1089.85 323.583 862.101 176.456C634.349 29.3296 328.604 91.8751 179.2 316.156C29.7967 540.436 93.3102 841.521 321.062 988.647Z" stroke="url(#paint6_linear_229_65)" stroke-miterlimit="10"/>
<path d="M289.336 1036.27C543.798 1200.65 885.4 1130.77 1052.32 880.191C1219.25 629.608 1148.29 293.213 893.826 128.832C639.365 -35.5495 297.763 34.3311 130.838 284.914C-36.0875 535.498 34.8748 871.893 289.336 1036.27Z" stroke="url(#paint7_linear_229_65)" stroke-miterlimit="10"/>
<path d="M267.643 1068.66C540.3 1244.8 906.327 1169.92 1085.19 901.421C1264.05 632.92 1188.01 272.471 915.357 96.3361C642.7 -79.7989 276.673 -4.92157 97.8116 263.579C-81.0495 532.08 -5.01322 892.529 267.643 1068.66Z" stroke="url(#paint8_linear_229_65)" stroke-miterlimit="10"/>
</g>
<defs>
<linearGradient id="paint0_linear_229_65" x1="1120.9" y1="1031.52" x2="490.866" y2="543" gradientUnits="userSpaceOnUse">
<stop stop-color="#F9BDB1" stop-opacity="0.24"/>
<stop offset="1" stop-color="#040327"/>
</linearGradient>
<linearGradient id="paint1_linear_229_65" x1="1120.9" y1="1031.52" x2="490.866" y2="543" gradientUnits="userSpaceOnUse">
<stop stop-color="#F9BDB1" stop-opacity="0.24"/>
<stop offset="1" stop-color="#040327"/>
</linearGradient>
<linearGradient id="paint2_linear_229_65" x1="1120.9" y1="1031.52" x2="490.866" y2="543" gradientUnits="userSpaceOnUse">
<stop stop-color="#F9BDB1" stop-opacity="0.24"/>
<stop offset="1" stop-color="#040327"/>
</linearGradient>
<linearGradient id="paint3_linear_229_65" x1="1120.9" y1="1031.52" x2="490.866" y2="543" gradientUnits="userSpaceOnUse">
<stop stop-color="#F9BDB1" stop-opacity="0.24"/>
<stop offset="1" stop-color="#040327"/>
</linearGradient>
<linearGradient id="paint4_linear_229_65" x1="1120.9" y1="1031.52" x2="490.866" y2="543" gradientUnits="userSpaceOnUse">
<stop stop-color="#F9BDB1" stop-opacity="0.24"/>
<stop offset="1" stop-color="#040327"/>
</linearGradient>
<linearGradient id="paint5_linear_229_65" x1="1120.9" y1="1031.52" x2="490.866" y2="543" gradientUnits="userSpaceOnUse">
<stop stop-color="#F9BDB1" stop-opacity="0.24"/>
<stop offset="1" stop-color="#040327"/>
</linearGradient>
<linearGradient id="paint6_linear_229_65" x1="1120.9" y1="1031.52" x2="490.866" y2="543" gradientUnits="userSpaceOnUse">
<stop stop-color="#F9BDB1" stop-opacity="0.24"/>
<stop offset="1" stop-color="#040327"/>
</linearGradient>
<linearGradient id="paint7_linear_229_65" x1="1120.9" y1="1031.52" x2="490.866" y2="543" gradientUnits="userSpaceOnUse">
<stop stop-color="#F9BDB1" stop-opacity="0.24"/>
<stop offset="1" stop-color="#040327"/>
</linearGradient>
<linearGradient id="paint8_linear_229_65" x1="1120.9" y1="1031.52" x2="490.866" y2="543" gradientUnits="userSpaceOnUse">
<stop stop-color="#F9BDB1" stop-opacity="0.24"/>
<stop offset="1" stop-color="#040327"/>
</linearGradient>
</defs>
</svg>
