<svg width="1440" height="267" viewBox="0 0 1440 267" fill="none" xmlns="http://www.w3.org/2000/svg">
<path d="M269.039 108.655C265.196 37.9088 194.733 12.0961 126.833 12.0961H0V353.398H1440V12.0961H1327.26C1249.11 12.0961 1197.86 38.8648 1185.05 108.655C1169.68 97.1824 1131.25 98.1385 1109.47 108.655C1092.81 35.0407 971.103 43.6449 960.854 108.655C948.043 103.875 926.263 105.787 919.858 119.171C882.705 108.655 854.52 115.347 826.335 129.687C784.057 119.171 740.498 129.687 725.125 156.456C686.69 122.995 641.851 119.171 594.448 129.687C553.451 111.975 539.359 103.875 494.52 108.655C476.584 29.3045 348.47 50.3371 345.908 108.655C320.285 100.051 290.819 101.007 269.039 108.655Z" fill="url(#paint0_radial_229_437)"/>
<path d="M210.002 33.8601C202.642 15.5853 195.571 8.5476 174.981 4.68915H117.779V209.827H1354.03V4.68915H1275.82C1251.34 7.94195 1239.27 11.7851 1230.29 33.8601C1194.1 27.2728 1176.59 33.8601 1159.08 50.7981C1113.55 24.4498 1051.68 23.5088 1015.49 62.0901C975.8 4.6883 871.904 -23.5412 784.351 33.8601C736.488 4.68915 685.124 10.3348 647.768 33.8601C583.562 -16.0132 485.503 -11.3074 428.301 62.0901C388.61 27.2736 326.739 24.4506 284.714 50.7981C263.701 33.8601 238.019 29.1556 210.002 33.8601Z" fill="url(#paint1_radial_229_437)"/>
<path d="M864.949 78.3856C851.181 29.9185 819.054 25.9884 777.093 25.9893H729.887V210.686H1196.7V25.9893H1132.45C1079.76 25.2021 1054.76 25.9896 1041.32 78.3856C1010.17 69.2157 986.899 88.8643 983.621 120.958C967.557 110.15 938.709 107.203 917.401 120.958C917.401 88.2094 890.191 73.1455 864.949 78.3856Z" fill="url(#paint2_radial_229_437)"/>
<defs>
<radialGradient id="paint0_radial_229_437" cx="0" cy="0" r="1" gradientUnits="userSpaceOnUse" gradientTransform="translate(720 78.0619) rotate(90) scale(171.129 722.017)">
<stop stop-color="#DB684C"/>
<stop offset="1" stop-color="#FF8F70" stop-opacity="0"/>
</radialGradient>
<radialGradient id="paint1_radial_229_437" cx="0" cy="0" r="1" gradientUnits="userSpaceOnUse" gradientTransform="translate(722.48 53.6153) rotate(90) scale(156.206 565.863)">
<stop stop-color="#F0A795"/>
<stop offset="1" stop-color="#FF8C70" stop-opacity="0"/>
</radialGradient>
<radialGradient id="paint2_radial_229_437" cx="0" cy="0" r="1" gradientUnits="userSpaceOnUse" gradientTransform="translate(954.117 80.8664) rotate(84.2834) scale(92.1518 181.087)">
<stop stop-color="#FF8C70"/>
<stop offset="1" stop-color="#FF8C70" stop-opacity="0"/>
</radialGradient>
</defs>
</svg>
